
<!--
<svg xmlns="http://www.w3.org/2000/svg" viewBox="0 0 24 24" fill="#53BBC9" class="w-6 h-6">
  <path fill-rule="evenodd" d="M3 2.25a.75.75 0 01.75.75v.54l1.838-.46a9.75 9.75 0 016.725.738l.108.054a8.25 8.25 0 005.58.652l3.109-.732a.75.75 0 01.917.81 47.784 47.784 0 00.005 10.337.75.75 0 01-.574.812l-3.114.733a9.75 9.75 0 01-6.594-.77l-.108-.054a8.25 8.25 0 00-5.69-.625l-2.202.55V21a.75.75 0 01-1.5 0V3A.75.75 0 013 2.25z" clip-rule="evenodd" />
</svg> -->
<svg width="800px" height="800px" viewBox="-2 0 20 20" xmlns="http://www.w3.org/2000/svg" fill="#53BBC9" class="w-6 h-6">
  <g id="water" transform="translate(-4 -2)">
    <path id="secondary" fill="#2ca9bc" d="M19,14A7,7,0,1,1,5,14C5,8,12,3,12,3S19,8,19,14Z"/>
    <path id="primary" d="M19,14A7,7,0,1,1,5,14C5,8,12,3,12,3S19,8,19,14Z" fill="none" stroke="#000000" stroke-linecap="round" stroke-linejoin="round" stroke-width="2"/>
  </g>
</svg>
