   <svg width="137" height="36" viewBox="0 0 137 36" fill="none" xmlns="http://www.w3.org/2000/svg">
        <path
          d="M50.2563 32.6885V31.0387C50.2563 30.2842 50.2691 29.4402 50.2883 28.9414H50.2627C50.0517 29.843 49.6105 31.3137 49.1885 32.6885H48.3764C48.0567 31.4863 47.6027 29.811 47.4045 28.935H47.3789C47.4173 29.4466 47.4364 30.3546 47.4364 31.1155V32.6885H46.5668V28.2828H47.9863C48.3252 29.4338 48.7153 30.8789 48.8432 31.5375H48.8496C48.9583 30.9556 49.4442 29.4146 49.8087 28.2828H51.1771V32.6885H50.2563ZM55.2422 30.4441V31.838C55.2422 32.1514 55.2678 32.6117 55.287 32.6885H54.411C54.3854 32.6245 54.3662 32.4519 54.3662 32.3688C54.2447 32.5542 54.0209 32.7652 53.439 32.7652C52.6397 32.7652 52.3008 32.2409 52.3008 31.7293C52.3008 30.9748 52.9083 30.6295 53.8802 30.6295C54.0401 30.6295 54.2383 30.6295 54.347 30.6295V30.4249C54.347 30.1883 54.2639 29.9581 53.8419 29.9581C53.4518 29.9581 53.3687 30.1244 53.3239 30.361H52.4543C52.5055 29.7727 52.8699 29.2995 53.8738 29.3059C54.7626 29.3123 55.2422 29.6576 55.2422 30.4441ZM54.347 31.2689V31.1858C54.2767 31.1858 54.0976 31.1858 53.9762 31.1858C53.4262 31.1858 53.2216 31.3521 53.2216 31.6718C53.2216 31.9148 53.3687 32.113 53.6948 32.113C54.2767 32.113 54.347 31.7102 54.347 31.2689ZM57.3689 28.027V30.7766C57.6119 30.4505 58.0531 29.9325 58.5071 29.3826H59.5622L58.4048 30.6295L59.6709 32.6885H58.6286L57.7909 31.2178L57.3689 31.627V32.6885H56.4545V28.027H57.3689ZM63.2257 31.2306H61.0453C61.0453 31.6462 61.2499 32.049 61.7103 32.049C62.0876 32.049 62.1963 31.8956 62.2858 31.6974H63.2066C63.0851 32.1002 62.727 32.7652 61.6847 32.7652C60.5977 32.7652 60.1245 31.9531 60.1245 31.0835C60.1245 30.0476 60.6552 29.3059 61.7167 29.3059C62.8549 29.3059 63.2385 30.1244 63.2385 30.9556C63.2385 31.0643 63.2385 31.1411 63.2257 31.2306ZM61.0645 30.6679H62.3241C62.3178 30.2842 62.1643 29.9581 61.7167 29.9581C61.2755 29.9581 61.1028 30.265 61.0645 30.6679ZM68.6742 31.6718H67.0629L66.7176 32.6885H65.784L67.2803 28.2828H68.476L70.0362 32.6885H69.0323L68.6742 31.6718ZM67.2611 30.8917H68.4696C68.1563 29.9645 67.9581 29.3698 67.8494 28.9734H67.843C67.7343 29.4082 67.5105 30.0988 67.2611 30.8917ZM72.9563 32.6885V28.2828H74.7019C75.9871 28.2828 76.8248 29.1269 76.8248 30.4313C76.8248 31.7165 76.0127 32.6885 74.6635 32.6885H72.9563ZM73.909 29.0501V31.9212H74.6252C75.4692 31.9212 75.8401 31.2945 75.8401 30.4313C75.8401 29.7151 75.4884 29.0501 74.6252 29.0501H73.909ZM77.9331 32.6885V29.3826H78.8475V32.6885H77.9331ZM77.9331 28.8391V28.027H78.8475V28.8391H77.9331ZM82.1616 30.0732H81.1385V32.6885H80.2242V30.0732H79.7446V29.3826H80.2242V29.0885C80.2242 28.4043 80.5247 27.9631 81.3048 27.9631C81.4583 27.9631 81.5861 27.9759 81.6693 28.0079V28.7176C81.5989 28.6984 81.535 28.692 81.4583 28.692C81.2153 28.692 81.1385 28.8519 81.1385 29.1077V29.3826H82.1616V29.0885C82.1616 28.4043 82.4686 27.9631 83.2423 27.9631C83.3957 27.9631 83.5236 27.9759 83.6067 28.0079V28.7176C83.5364 28.6984 83.4661 28.692 83.3957 28.692C83.1527 28.692 83.076 28.8519 83.076 29.1077V29.3826H83.6515V30.0732H83.076V32.6885H82.1616V30.0732ZM87.3734 31.2306H85.193C85.193 31.6462 85.3976 32.049 85.858 32.049C86.2352 32.049 86.344 31.8956 86.4335 31.6974H87.3542C87.2328 32.1002 86.8747 32.7652 85.8324 32.7652C84.7454 32.7652 84.2722 31.9531 84.2722 31.0835C84.2722 30.0476 84.8029 29.3059 85.8644 29.3059C87.0026 29.3059 87.3862 30.1244 87.3862 30.9556C87.3862 31.0643 87.3862 31.1411 87.3734 31.2306ZM85.2122 30.6679H86.4718C86.4654 30.2842 86.312 29.9581 85.8644 29.9581C85.4232 29.9581 85.2505 30.265 85.2122 30.6679ZM88.4133 32.6885V30.2778C88.4133 29.9517 88.4133 29.6576 88.4069 29.3826H89.3021C89.3148 29.453 89.3276 29.7855 89.3276 29.9645C89.4747 29.5872 89.8264 29.3059 90.3891 29.3059V30.1819C89.7241 30.1627 89.3276 30.3418 89.3276 31.2498V32.6885H88.4133ZM94.1666 31.2306H91.9862C91.9862 31.6462 92.1908 32.049 92.6512 32.049C93.0284 32.049 93.1371 31.8956 93.2267 31.6974H94.1474C94.0259 32.1002 93.6679 32.7652 92.6256 32.7652C91.5386 32.7652 91.0654 31.9531 91.0654 31.0835C91.0654 30.0476 91.5961 29.3059 92.6576 29.3059C93.7957 29.3059 94.1794 30.1244 94.1794 30.9556C94.1794 31.0643 94.1794 31.1411 94.1666 31.2306ZM92.0053 30.6679H93.265C93.2586 30.2842 93.1052 29.9581 92.6576 29.9581C92.2164 29.9581 92.0437 30.265 92.0053 30.6679ZM95.2128 32.6885V30.2139C95.2128 29.9325 95.2128 29.6256 95.2064 29.3826H96.0952C96.108 29.4658 96.1208 29.6959 96.1272 29.8047C96.2423 29.5936 96.5109 29.3059 97.0864 29.3059C97.7514 29.3059 98.1862 29.7535 98.1862 30.5848V32.6885H97.2654V30.6871C97.2654 30.3162 97.1439 30.0476 96.7411 30.0476C96.351 30.0476 96.1272 30.265 96.1272 30.8469V32.6885H95.2128ZM101.344 31.6206H102.245C102.13 32.1705 101.746 32.7652 100.755 32.7652C99.7257 32.7652 99.195 32.0554 99.195 31.0579C99.195 30.086 99.7961 29.3059 100.8 29.3059C101.919 29.3059 102.226 30.1052 102.245 30.4824H101.35C101.292 30.2139 101.139 30.0221 100.781 30.0221C100.365 30.0221 100.129 30.3865 100.129 31.0324C100.129 31.7357 100.378 32.0554 100.781 32.0554C101.094 32.0554 101.26 31.87 101.344 31.6206ZM106.152 31.2306H103.971C103.971 31.6462 104.176 32.049 104.636 32.049C105.013 32.049 105.122 31.8956 105.212 31.6974H106.132C106.011 32.1002 105.653 32.7652 104.611 32.7652C103.524 32.7652 103.05 31.9531 103.05 31.0835C103.05 30.0476 103.581 29.3059 104.643 29.3059C105.781 29.3059 106.164 30.1244 106.164 30.9556C106.164 31.0643 106.164 31.1411 106.152 31.2306ZM103.99 30.6679H105.25C105.244 30.2842 105.09 29.9581 104.643 29.9581C104.201 29.9581 104.029 30.265 103.99 30.6679ZM110.04 32.6885V29.0629H108.704V28.2828H112.329V29.0629H110.999V32.6885H110.04ZM114.669 29.3059C115.641 29.3059 116.267 29.9901 116.267 31.0324C116.267 32.0299 115.673 32.7652 114.624 32.7652C113.594 32.7652 113 32.0363 113 31.0451C113 30.0285 113.614 29.3059 114.669 29.3059ZM114.63 30.0221C114.202 30.0221 113.927 30.3354 113.927 31.0387C113.927 31.6718 114.202 32.049 114.643 32.049C115.091 32.049 115.34 31.6718 115.34 31.0451C115.34 30.3482 115.084 30.0221 114.63 30.0221ZM119.438 28.027H120.359V31.7805C120.359 32.081 120.359 32.3879 120.366 32.6885H119.483C119.464 32.5926 119.445 32.4199 119.438 32.3432C119.279 32.6054 118.997 32.7652 118.505 32.7652C117.667 32.7652 117.13 32.0938 117.13 31.0643C117.13 30.0476 117.699 29.3059 118.639 29.3059C119.112 29.3059 119.368 29.4721 119.438 29.6192V28.027ZM118.799 30.0412C118.319 30.0412 118.076 30.4121 118.076 31.0387C118.076 31.6846 118.326 32.0363 118.773 32.0363C119.406 32.0363 119.477 31.5119 119.477 31.0324C119.477 30.4697 119.4 30.0412 118.799 30.0412ZM124.27 30.4441V31.838C124.27 32.1514 124.296 32.6117 124.315 32.6885H123.439C123.414 32.6245 123.394 32.4519 123.394 32.3688C123.273 32.5542 123.049 32.7652 122.467 32.7652C121.668 32.7652 121.329 32.2409 121.329 31.7293C121.329 30.9748 121.936 30.6295 122.908 30.6295C123.068 30.6295 123.266 30.6295 123.375 30.6295V30.4249C123.375 30.1883 123.292 29.9581 122.87 29.9581C122.48 29.9581 122.397 30.1244 122.352 30.361H121.482C121.534 29.7727 121.898 29.2995 122.902 29.3059C123.791 29.3123 124.27 29.6576 124.27 30.4441ZM123.375 31.2689V31.1858C123.305 31.1858 123.126 31.1858 123.004 31.1858C122.454 31.1858 122.25 31.3521 122.25 31.6718C122.25 31.9148 122.397 32.113 122.723 32.113C123.305 32.113 123.375 31.7102 123.375 31.2689ZM125.055 29.3826H126.034C126.379 30.5208 126.673 31.5439 126.731 31.8508H126.737C126.807 31.5183 126.999 30.7766 127.396 29.3826H128.31L127.198 32.7844C126.878 33.7371 126.616 34.0249 125.823 34.0249C125.74 34.0249 125.548 34.0185 125.388 33.9993V33.264C125.452 33.2704 125.554 33.2768 125.631 33.2768C125.963 33.2768 126.136 33.1617 126.258 32.7908L125.055 29.3826Z"
          fill="white" />
        <path
          d="M33.6274 0.26492C31.1663 0.358198 29.1729 0.35075 27.8721 0.330368C20.8553 0.220229 17.9551 -0.519267 13.6801 0.657357C12.2986 1.03832 10.9613 1.56444 9.69061 2.22692C8.43516 2.97938 7.30895 3.92893 6.35515 5.03917C4.12722 7.63837 3.45124 10.4356 3.21588 11.8409C2.79188 13.5465 2.77213 15.3275 3.15819 17.042C3.54425 18.7566 4.32545 20.3572 5.43954 21.7165C6.15361 22.5655 7.94525 24.4587 10.9332 25.3789C12.5627 25.8775 14.282 26.0115 15.9691 25.7713C19.1293 24.8346 19.6788 24.433 19.6441 24.238C19.535 23.6253 13.7027 25.2914 10.4754 22.3051C9.42645 21.3345 8.95632 20.1845 8.77509 19.6237C8.56535 18.9751 7.74022 16.1752 9.16751 13.2144C10.1396 11.1979 11.6693 10.117 12.3722 9.68271C13.0379 9.3264 13.7394 9.04141 14.465 8.83248C16.0984 8.36322 17.3341 8.43643 19.1738 8.50549C19.1738 8.50549 21.0743 8.5768 25.1254 8.63639C26.2932 8.65353 28.0521 8.65711 30.2267 8.57094C30.6287 8.57222 31.3461 8.51151 31.9925 8.04773C32.9096 7.3897 33.1312 6.3168 33.3005 5.49708C33.5138 4.46435 33.3457 4.08295 33.4314 2.35784C33.4763 1.45064 33.5643 0.719157 33.6274 0.26492Z"
          fill="#18B2BE" />
        <path
          d="M8.51332 2.35742C7.11452 3.21871 5.00449 4.78653 3.28123 7.3933C-0.0534848 12.4377 0.450589 17.7566 0.665164 19.3617C1.13653 21.4424 2.07593 23.3884 3.41202 25.0516C5.70892 27.9011 8.51167 29.0664 9.75593 29.499C10.6465 29.8732 13.1118 30.7695 16.1652 30.0876C19.9769 29.2363 22.0205 26.5251 22.5091 25.8366C23.8545 23.7338 24.9311 21.4707 25.7138 19.1003C26.3039 16.957 26.2812 14.6912 25.6484 12.5601C25.8703 14.477 25.6694 16.4192 25.0598 18.2501C24.751 19.1753 24.0095 21.3211 21.9859 23.2859C21.314 23.9383 19.2755 25.8631 15.9686 26.4062C15.4755 26.4872 13.032 26.8531 10.1753 25.7798C5.69578 24.0968 3.77529 20.2184 3.4425 19.5167C3.28219 19.1787 1.41596 15.0884 2.81607 10.4353C3.46575 8.27638 4.60591 6.70296 5.24309 5.82372C6.17958 4.53247 7.27873 3.36743 8.51332 2.35742Z"
          fill="#00AAC5" />
        <path
          d="M33.5621 16.6153C33.4201 16.0091 33.1131 14.7824 32.0579 13.803C30.9234 12.7501 29.6169 12.5654 28.657 12.4296C27.6546 12.2894 26.635 12.3338 25.6486 12.5605C26.0585 14.8312 26.0585 17.1569 25.6486 19.4276C25.4446 20.549 25.1364 22.1733 24.1673 24.0326C23.5186 25.2773 21.868 28.4443 18.1274 30.0226C15.2363 31.2426 12.5857 30.8823 11.5219 30.6766C10.1876 30.4186 9.24792 29.9771 8.51347 29.6302C5.41705 28.1675 3.66412 26.059 3.19632 25.4718C1.47935 23.3165 0.84937 21.2542 0.729134 20.8458C-0.206019 17.6697 0.412808 15.0945 0.31794 15.0891C0.229835 15.0841 -0.283969 17.3072 0.215085 20.0234C0.268596 20.3147 0.509045 21.7147 1.34587 23.4158C1.64067 24.015 2.82455 26.3288 5.35504 28.6586C6.17033 29.4092 7.66378 30.7588 10.0176 31.8538C13.3577 33.4076 16.2951 33.4283 16.9502 33.4235C17.6566 33.4182 19.839 33.3528 22.4439 32.3771C23.2668 32.0688 26.8659 30.6456 29.9179 26.8559C30.8454 25.7042 34.5995 21.0429 33.5621 16.6153Z"
          fill="#31B9D4" />
        <path
          d="M33.4487 0.570424C33.329 0.559828 33.2859 1.30403 32.7401 2.31968C32.4724 2.79441 32.1552 3.23944 31.7938 3.64733C30.423 5.17641 24.7187 4.80143 19.8341 5.03392C16.1995 5.20692 14.4194 5.49205 12.5289 6.42051C10.2838 7.52302 9.18897 8.89128 8.90857 9.25657C8.57937 9.68566 7.36298 11.352 7.09845 13.8575C7.03836 14.4268 6.885 16.4035 7.87422 18.6477C8.46485 19.9827 9.34871 21.1676 10.4601 22.1142C10.1703 21.7654 7.63795 18.6209 8.58535 14.9291C9.12692 12.8187 10.588 11.3898 10.9773 11.0214C11.605 10.4256 12.3256 9.93599 13.1107 9.57181C14.6204 8.87439 16.0165 8.81738 18.0885 8.75243C19.0587 8.72218 20.0297 8.74323 20.9977 8.81548H29.7899C31.0082 8.86223 31.7031 8.45019 31.9879 8.24827C33.0459 7.49796 33.2236 6.12855 33.4748 4.1515C33.7131 2.2754 33.6284 0.586319 33.4487 0.570424Z"
          fill="#00A0BA" />
        <path
          d="M33.6274 0.26492C31.1663 0.358198 29.1729 0.35075 27.8721 0.330368C20.8553 0.220229 17.9551 -0.519267 13.6801 0.657357C12.2986 1.03832 10.9613 1.56444 9.69061 2.22691C8.43516 2.97938 7.30895 3.92893 6.35515 5.03917C4.12722 7.63837 3.45124 10.4356 3.21588 11.8409C2.79188 13.5464 2.77213 15.3275 3.15819 17.042C3.54425 18.7566 4.32545 20.3572 5.43954 21.7165C6.15361 22.5655 7.94525 24.4587 10.9332 25.3789C11.7464 25.6294 13.5929 26.1768 15.9691 25.7713C18.5194 25.3362 20.2346 24.051 20.9806 23.4156C20.7268 23.5084 14.8363 25.5653 11.009 22.182C9.08953 20.4852 8.56922 18.198 8.54182 18.07C8.03644 15.7086 8.88399 13.8218 9.16748 13.2143C9.40162 12.7125 10.2713 10.8058 12.3721 9.68264C13.0378 9.32633 13.7394 9.04134 14.465 8.83242C16.0984 8.36316 17.3341 8.43637 19.1738 8.50543C19.1738 8.50543 21.0743 8.57674 25.1253 8.63632C26.2932 8.65346 28.0521 8.65705 30.2266 8.57088C30.6287 8.57215 31.3461 8.51144 31.9925 8.04767C32.9096 7.38964 33.1312 6.31674 33.3005 5.49702C33.5138 4.46429 33.3456 4.08288 33.4314 2.35778C33.4763 1.45064 33.5643 0.719157 33.6274 0.26492Z"
          fill="#18B2BE" />
        <path
          d="M8.51298 2.35742C7.25673 3.09938 5.0356 4.64111 3.28088 7.3933C2.57464 8.50099 0.406697 12.2159 0.934111 17.2473C1.2779 20.5264 2.6163 22.9319 3.50408 24.2378C4.37488 25.5185 6.21861 28.1514 9.75549 29.499C10.7374 29.873 13.1679 30.7569 16.1648 30.0876C19.9765 29.2363 22.02 26.5251 22.5087 25.8366C23.8541 23.7338 24.9307 21.4708 25.7134 19.1003C26.3034 16.957 26.2808 14.6912 25.648 12.5602C25.8699 14.477 25.6689 16.4193 25.0593 18.2501C24.7506 19.1754 24.009 21.3211 21.9855 23.286C21.3136 23.9383 19.275 25.8631 15.9682 26.4062C15.475 26.4873 13.0316 26.8532 10.1749 25.7798C5.69534 24.0969 3.77485 20.2184 3.4421 19.5168C3.28175 19.1787 1.41556 15.0884 2.81567 10.4353C3.46535 8.27641 4.60554 6.70299 5.24269 5.82375C6.1792 4.53249 7.27837 3.36744 8.51298 2.35742Z"
          fill="#00AAC5" />
        <path
          d="M33.4487 0.570424C33.329 0.559828 33.2859 1.30403 32.7401 2.31968C32.4724 2.79441 32.1552 3.23944 31.7938 3.64733C30.423 5.17641 24.7187 4.80143 19.8341 5.03392C16.1995 5.20692 14.4194 5.49205 12.5289 6.42051C10.2838 7.52302 9.18897 8.89128 8.90857 9.25657C8.57937 9.68566 7.36298 11.352 7.09845 13.8575C7.03836 14.4268 6.885 16.4035 7.87422 18.6477C8.46485 19.9827 9.34871 21.1676 10.4601 22.1142C10.1703 21.7654 7.63795 18.6209 8.58535 14.9291C9.12692 12.8187 10.588 11.3898 10.9773 11.0214C11.605 10.4256 12.3256 9.93599 13.1107 9.57181C14.6204 8.87439 16.0165 8.81738 18.0885 8.75243C19.0587 8.72218 20.0297 8.74323 20.9977 8.81548H29.7899C31.0082 8.86223 31.7031 8.45019 31.9879 8.24827C33.0459 7.49796 33.2236 6.12855 33.4748 4.1515C33.7131 2.2754 33.6284 0.586319 33.4487 0.570424Z"
          fill="#00A0BA" />
        <path
          d="M57.3011 11.8099L52.79 11.8405C52.7037 11.2575 52.5319 10.7402 52.2748 10.2888C52.0177 9.83046 51.6889 9.44131 51.2884 9.1213C50.888 8.80129 50.4263 8.55723 49.9033 8.38912C49.3872 8.22096 48.827 8.13893 48.2228 8.14302C47.1311 8.15043 46.182 8.42809 45.3755 8.976C44.5689 9.51705 43.946 10.304 43.5067 11.337C43.0673 12.3631 42.8526 13.6073 42.8625 15.0698C42.8727 16.5735 43.1044 17.8353 43.5576 18.8554C44.0177 19.8753 44.6547 20.6435 45.4684 21.1598C46.2821 21.6762 47.2211 21.9307 48.2854 21.9235C48.8827 21.9194 49.4349 21.8367 49.9419 21.6754C50.4558 21.514 50.9108 21.2808 51.307 20.976C51.7032 20.6644 52.0302 20.2879 52.2881 19.8467C52.5529 19.4055 52.7349 18.903 52.8341 18.3393L57.3453 18.3293C57.2351 19.2982 56.9496 20.234 56.4888 21.1366C56.0349 22.0323 55.4189 22.8364 54.641 23.5489C53.8698 24.2545 52.9467 24.817 51.8715 25.2363C50.8031 25.6486 49.5926 25.8594 48.24 25.8686C46.3587 25.8813 44.6736 25.467 43.1848 24.6257C41.7028 23.7843 40.5272 22.5597 39.658 20.952C38.7957 19.3443 38.3567 17.3938 38.3412 15.1005C38.3256 12.8003 38.7449 10.8406 39.5991 9.22116C40.4532 7.60176 41.619 6.36477 43.0964 5.51018C44.5737 4.64873 46.2392 4.21172 48.0931 4.19915C49.3153 4.19086 50.4493 4.35483 51.4953 4.69106C52.5481 5.02724 53.4819 5.52216 54.2966 6.17581C55.1112 6.82259 55.7758 7.61803 56.2903 8.5621C56.8117 9.50613 57.1486 10.5887 57.3011 11.8099ZM61.9932 25.4869L61.8502 4.39425L66.3097 4.36401L66.4278 21.7799L75.4704 21.7186L75.4954 25.3954L61.9932 25.4869ZM92.7354 4.18483L97.1949 4.15459L97.2878 17.8525C97.2982 19.3905 96.94 20.7387 96.2131 21.8972C95.4931 23.0556 94.4796 23.962 93.1726 24.6163C91.8655 25.2638 90.3399 25.5934 88.596 25.6052C86.8451 25.6171 85.3118 25.3082 83.996 24.6785C82.6802 24.042 81.6545 23.1495 80.9189 22.0009C80.1833 20.8523 79.8102 19.509 79.7998 17.971L79.7069 4.27317L84.1665 4.24293L84.2568 17.5597C84.2622 18.3631 84.4421 19.076 84.7965 19.6984C85.1578 20.3208 85.6624 20.8083 86.3102 21.161C86.958 21.5136 87.7111 21.6871 88.5693 21.6812C89.4345 21.6754 90.1851 21.4918 90.8212 21.1304C91.4642 20.769 91.9587 20.2747 92.3046 19.6475C92.6574 19.0202 92.8311 18.305 92.8257 17.5016L92.7354 4.18483ZM106.725 4.08997L106.868 25.1826L102.408 25.2129L102.265 4.12021L106.725 4.08997ZM115.977 4.02724L120.279 11.1872L120.444 11.1861L124.669 3.96829L129.705 3.93414L123.34 14.5241L129.993 25.0258L124.864 25.0606L120.489 17.8908L120.324 17.8919L116.048 25.1204L110.939 25.155L117.469 14.5639L110.92 4.06153L115.977 4.02724Z"
          fill="white" />
      </svg>
